<?xml version="1.0" encoding="UTF-8" standalone="no"?>
<!-- Created with Inkscape (http://www.inkscape.org/) -->

<svg
   width="500"
   height="108.867"
   viewBox="0 0 132.29166 28.804393"
   version="1.1"
   id="svg21"
   inkscape:version="1.3.2 (1:1.3.2+202311252150+091e20ef0f)"
   sodipodi:docname="qscat-logo.svg"
   xml:space="preserve"
   xmlns:inkscape="http://www.inkscape.org/namespaces/inkscape"
   xmlns:sodipodi="http://sodipodi.sourceforge.net/DTD/sodipodi-0.dtd"
   xmlns="http://www.w3.org/2000/svg"
   xmlns:svg="http://www.w3.org/2000/svg"><sodipodi:namedview
     id="namedview23"
     pagecolor="#ffffff"
     bordercolor="#000000"
     borderopacity="0.25"
     inkscape:showpageshadow="2"
     inkscape:pageopacity="0.0"
     inkscape:pagecheckerboard="0"
     inkscape:deskcolor="#d1d1d1"
     inkscape:document-units="mm"
     showgrid="false"
     inkscape:zoom="0.70710678"
     inkscape:cx="260.2153"
     inkscape:cy="53.740115"
     inkscape:window-width="1850"
     inkscape:window-height="1016"
     inkscape:window-x="0"
     inkscape:window-y="0"
     inkscape:window-maximized="1"
     inkscape:current-layer="layer1"
     showguides="true"><inkscape:grid
       type="xygrid"
       id="grid6092"
       originx="0"
       originy="0"
       spacingy="1"
       spacingx="1"
       units="mm"
       visible="false" /></sodipodi:namedview><defs
     id="defs18" /><g
     inkscape:label="Layer 1"
     inkscape:groupmode="layer"
     id="layer1"><rect
       style="fill:none;fill-opacity:1;stroke:none;stroke-width:0.0263869;stroke-linecap:round;stroke-linejoin:miter;stroke-opacity:1;paint-order:fill markers stroke"
       id="rect7203"
       width="543.95697"
       height="182.53612"
       x="-3.56745e-05"
       y="368.57339"
       inkscape:export-filename="../../Downloads/qscat.png"
       inkscape:export-xdpi="96"
       inkscape:export-ydpi="96" /><g
       id="g572"
       transform="matrix(0.26853552,0,0,0.26853552,21.088977,-8.469134)"
       style="fill:#ffffff;stroke-width:1.46806"><g
         id="g558"
         style="fill:#ffffff;stroke-width:1.46806"><path
           d="m 148.09483,85.312244 c 0,-15.908003 -11.4848,-28.091203 -27.54801,-28.091203 -16.14079,0 -27.625586,12.1832 -27.625586,28.091203 0,15.908006 11.484796,28.168796 27.625586,28.168796 5.82001,0 11.0968,-1.62959 15.44241,-4.50079 l 5.81999,5.89759 4.8888,-4.8888 -5.50958,-5.5872 c 4.42318,-4.966393 6.90639,-11.562396 6.90639,-19.089596 z m -27.54801,20.874396 c -12.64879,0 -19.71039,-10.320791 -19.71039,-20.874396 0,-10.553606 7.0616,-20.874397 19.71039,-20.874397 12.6488,0 19.63281,10.320791 19.63281,20.874397 0,4.966393 -1.47441,9.777597 -4.4232,13.579995 l -8.53599,-8.535992 -4.88882,4.888799 8.22562,8.303194 c -2.79361,1.62961 -6.13041,2.6384 -10.01042,2.6384 z"
           style="font-size:52.3635px;font-family:FreeSans;-inkscape-font-specification:'MADE TOMMY';fill:#ffffff;stroke:none;stroke-width:20.4827;stroke-linecap:round;stroke-linejoin:round"
           id="path459" /><path
           d="m 176.57391,82.363448 c -6.9064,-1.552 -13.5024,-2.638401 -13.5024,-9.544798 0,-5.199208 4.1904,-8.380803 9.38959,-8.380803 5.7424,0 8.53601,3.104 9.62241,6.363204 l 7.60479,-1.862409 c -2.25039,-7.5272 -8.69119,-11.717601 -16.45119,-11.717601 -10.08801,0 -17.9256,6.440799 -17.9256,15.597609 0,7.061601 2.48319,12.803988 13.42479,15.442389 8.6136,2.095208 15.2096,2.405602 15.2096,9.777598 0,5.587213 -5.19919,8.148003 -11.0968,8.148003 -7.2168,0 -11.252,-3.8024 -12.02799,-7.371996 l -7.68241,2.405606 c 2.6384,8.53599 11.25201,12.26079 19.5552,12.26079 13.968,0 19.16721,-8.4584 19.16721,-16.063191 0,-8.768806 -4.73361,-12.571204 -15.2872,-15.054401 z"
           style="font-size:52.3635px;font-family:FreeSans;-inkscape-font-specification:'MADE TOMMY';fill:#ffffff;stroke:none;stroke-width:20.4827;stroke-linecap:round;stroke-linejoin:round"
           id="path461" /><path
           d="m 225.30656,106.18664 c -12.6488,0 -19.7104,-10.320791 -19.7104,-20.874396 0,-10.553606 7.0616,-20.874397 19.7104,-20.874397 6.596,0 11.7176,2.871201 15.13199,7.061602 l 6.4408,-4.190401 c -4.96639,-6.285595 -12.5712,-10.088007 -21.57279,-10.088007 -16.06321,0 -27.62561,12.1832 -27.62561,28.091203 0,15.908006 11.5624,28.168796 27.62561,28.168796 9.00159,0 16.6064,-3.87999 21.57279,-10.08799 l -6.4408,-4.268012 c -3.41439,4.190402 -8.53599,7.061602 -15.13199,7.061602 z"
           style="font-size:52.3635px;font-family:FreeSans;-inkscape-font-specification:'MADE TOMMY';fill:#ffffff;stroke:none;stroke-width:20.4827;stroke-linecap:round;stroke-linejoin:round"
           id="path463" /><path
           d="m 291.96471,112.47223 h 8.3808 l -20.176,-54.319977 h -8.8464 l -20.176,54.319977 h 8.3808 l 4.57839,-13.036783 h 23.28 z m -25.3752,-20.17598 9.1568,-25.840804 9.0792,25.840804 z"
           style="font-size:52.3635px;font-family:FreeSans;-inkscape-font-specification:'MADE TOMMY';fill:#ffffff;stroke:none;stroke-width:20.4827;stroke-linecap:round;stroke-linejoin:round"
           id="path465" /><path
           d="m 335.57577,58.152253 h -35.23039 v 7.061587 h 13.73519 v 47.25839 h 7.76 V 65.21384 h 13.7352 z"
           style="font-size:52.3635px;font-family:FreeSans;-inkscape-font-specification:'MADE TOMMY';fill:#ffffff;stroke:none;stroke-width:20.4827;stroke-linecap:round;stroke-linejoin:round"
           id="path467" /></g><g
         id="g551"
         style="fill:#ffffff;stroke-width:1.46806"><path
           style="color:#000000;fill:#ffffff;stroke-width:2.17559;stroke-linecap:round;-inkscape-stroke:none;paint-order:fill markers stroke"
           d="m 10.714699,59.352853 a 4.2653063,4.2653063 0 0 0 0,6.031989 l 55.037588,55.037588 a 4.2653063,4.2653063 0 0 0 6.031992,0 4.2653063,4.2653063 0 0 0 0,-6.03199 L 16.746691,59.352853 a 4.2653063,4.2653063 0 0 0 -6.031992,0 z"
           id="path484" /><path
           style="color:#000000;fill:#ffffff;stroke-width:2.17559;stroke-linecap:round;-inkscape-stroke:none;paint-order:fill markers stroke"
           d="m 3.6667612,72.536976 a 4.2652766,4.2652766 0 0 0 0,6.031988 L 45.526009,120.42822 a 4.2652766,4.2652766 0 0 0 6.031993,0 4.2652766,4.2652766 0 0 0 0,-6.032 L 9.6987542,72.536976 a 4.2652766,4.2652766 0 0 0 -6.031993,0 z"
           id="path490" /><path
           style="color:#000000;fill:#ffffff;stroke-width:2.17559;stroke-linecap:round;-inkscape-stroke:none;paint-order:fill markers stroke"
           d="m 4.2659084,89.104697 a 4.2652766,4.2652766 0 0 0 -3.0159958,1.250394 4.2652766,4.2652766 0 0 0 0,6.031989 l 24.0671854,24.06718 a 4.2652766,4.2652766 0 0 0 6.031993,0 4.2652766,4.2652766 0 0 0 0,-6.03199 L 7.2819041,90.355091 A 4.2652766,4.2652766 0 0 0 4.2659084,89.104697 Z"
           id="path496" /><path
           style="color:#000000;fill:#ffffff;stroke-width:2.17559;stroke-linecap:round;-inkscape-stroke:none;paint-order:fill markers stroke"
           d="m 23.901722,52.304915 a 4.2652766,4.2652766 0 0 0 0,6.031989 l 41.888192,41.888186 a 4.2652766,4.2652766 0 0 0 6.031993,0 4.2652766,4.2652766 0 0 0 0,-6.03199 L 29.933715,52.304915 a 4.2652766,4.2652766 0 0 0 -6.031993,0 z"
           id="path502" /><path
           style="color:#000000;fill:#ffffff;stroke-width:2.17559;stroke-linecap:round;-inkscape-stroke:none;paint-order:fill markers stroke"
           d="m 44.732936,48.637671 a 4.2652766,4.2652766 0 0 0 -3.015996,1.250394 4.2652766,4.2652766 0 0 0 0,6.031989 l 24.067186,24.067179 a 4.2652766,4.2652766 0 0 0 6.031991,0 4.2652766,4.2652766 0 0 0 0,-6.031988 L 47.748932,49.888065 a 4.2652766,4.2652766 0 0 0 -3.015996,-1.250394 z"
           id="path508" /></g></g><g
       id="g9673" /></g></svg>
