<?xml version="1.0" encoding="UTF-8" standalone="no"?>
<!-- Created with Inkscape (http://www.inkscape.org/) -->

<svg
   width="48"
   height="48"
   viewBox="0 0 12.7 12.7"
   version="1.1"
   id="svg1"
   inkscape:version="1.3.2 (1:1.3.2+202311252150+091e20ef0f)"
   sodipodi:docname="automator.svg"
   xmlns:inkscape="http://www.inkscape.org/namespaces/inkscape"
   xmlns:sodipodi="http://sodipodi.sourceforge.net/DTD/sodipodi-0.dtd"
   xmlns="http://www.w3.org/2000/svg"
   xmlns:svg="http://www.w3.org/2000/svg">
  <sodipodi:namedview
     id="namedview1"
     pagecolor="#ffffff"
     bordercolor="#000000"
     borderopacity="0.25"
     inkscape:showpageshadow="2"
     inkscape:pageopacity="0.0"
     inkscape:pagecheckerboard="0"
     inkscape:deskcolor="#d1d1d1"
     inkscape:document-units="mm"
     inkscape:zoom="4.2028808"
     inkscape:cx="1.1896602"
     inkscape:cy="39.972583"
     inkscape:window-width="1850"
     inkscape:window-height="1016"
     inkscape:window-x="0"
     inkscape:window-y="0"
     inkscape:window-maximized="1"
     inkscape:current-layer="layer1" />
  <defs
     id="defs1" />
  <g
     inkscape:label="Layer 1"
     inkscape:groupmode="layer"
     id="layer1">
    <g
       id="g154"
       transform="matrix(0,0.37499998,-0.37499998,0,49.395426,-6.8727256)" />
    <g
       id="g169"
       transform="matrix(0,1.0159964,-1.0159962,0,583.46987,-23.404771)"
       style="stroke-width:0.984252">
      <path
         id="path168"
         style="fill:none;fill-opacity:1;stroke:#2e7ee6;stroke-width:0.781253;stroke-linecap:square;stroke-linejoin:miter;stroke-dasharray:none;stroke-dashoffset:0;stroke-opacity:1;paint-order:stroke fill markers"
         d="m 28.486573,562.17407 -0.0795,1.30244 a 4.6802635,4.6802029 0 0 0 -1.72672,0.70779 l -0.9718,-0.85998 -0.55559,0.55625 -0.0195,0.0195 -0.55561,0.55559 0.85259,0.96369 a 4.6802635,4.6802029 0 0 0 -0.73069,1.73682 l -1.27282,0.0774 v 0.78594 0.0277 0.7859 l 1.25869,0.0768 a 4.6802635,4.6802029 0 0 0 0.71654,1.76912 l -0.82431,0.93205 0.55561,0.55558 0.0195,0.0195 0.55559,0.55561 0.92331,-0.81757 a 4.6802635,4.6802029 0 0 0 1.77992,0.74079 l 0.0748,1.22768 h 0.78592 0.0276 0.78592 l 0.0748,-1.22768 a 4.6802635,4.6802029 0 0 0 1.77993,-0.74012 l 0.9233,0.8169 0.55559,-0.55561 0.0195,-0.0195 0.55627,-0.55558 -0.82498,-0.93136 a 4.6802635,4.6802029 0 0 0 0.71723,-1.76981 l 1.258,-0.0768 v -0.7859 -0.0277 -0.78594 l -1.26945,-0.0774 a 4.6802635,4.6802029 0 0 0 -0.73339,-1.7375 l 0.85259,-0.96301 -0.55627,-0.55559 -0.0195,-0.0195 -0.55559,-0.55625 -0.97044,0.85931 a 4.6802635,4.6802029 0 0 0 -1.72807,-0.70981 l -0.0794,-1.29975 h -0.78592 -0.0276 z" />
    </g>
    <circle
       style="fill:none;fill-opacity:1;stroke:#475666;stroke-width:0.79375;stroke-linecap:butt;stroke-linejoin:miter;stroke-dasharray:none;stroke-opacity:1;paint-order:fill markers stroke"
       id="path171"
       cx="6.3500023"
       cy="-6.3431644"
       r="2.3643229"
       transform="rotate(90)" />
  </g>
</svg>
