<?xml version="1.0" encoding="UTF-8" standalone="no"?>
<svg
   enable-background="new -235.433 -235.433 579.997 579.997"
   height="579.997"
   viewBox="-235.433 -235.433 579.997 579.997"
   width="579.997"
   version="1.1"
   id="svg1"
   sodipodi:docname="orientation.svg"
   xml:space="preserve"
   inkscape:version="1.3.2 (1:1.3.2+202311252150+091e20ef0f)"
   xmlns:inkscape="http://www.inkscape.org/namespaces/inkscape"
   xmlns:sodipodi="http://sodipodi.sourceforge.net/DTD/sodipodi-0.dtd"
   xmlns="http://www.w3.org/2000/svg"
   xmlns:svg="http://www.w3.org/2000/svg"><defs
     id="defs1" /><sodipodi:namedview
     id="namedview1"
     pagecolor="#ffffff"
     bordercolor="#000000"
     borderopacity="0.25"
     inkscape:showpageshadow="2"
     inkscape:pageopacity="0.0"
     inkscape:pagecheckerboard="0"
     inkscape:deskcolor="#d1d1d1"
     inkscape:zoom="0.50107308"
     inkscape:cx="95.79441"
     inkscape:cy="431.07485"
     inkscape:window-width="1850"
     inkscape:window-height="1016"
     inkscape:window-x="0"
     inkscape:window-y="0"
     inkscape:window-maximized="1"
     inkscape:current-layer="svg1" /><path
     id="path3"
     style="font-weight:bold;font-size:252.226px;font-family:'Liberation Sans';-inkscape-font-specification:'Liberation Sans';letter-spacing:0px;stroke-width:3.5074;stroke-linecap:square;paint-order:fill markers stroke"
     d="M 122.7901,212.80434 H 8.3050185 v 23.97014 H 51.77523 V 264.8887 L 8.3050185,291.4579 v 26.9764 L 56.406382,287.47619 c 1.841738,7.74614 5.660688,13.89454 11.456751,18.44472 5.850229,4.55018 12.784549,6.8256 20.80153,6.8256 10.996264,0 19.418797,-3.71091 25.269027,-11.13203 5.9044,-7.42113 8.85641,-17.95702 8.85641,-31.60755 z m -18.60708,23.97014 v 30.71328 c 0,14.08388 -5.49755,21.12625 -16.493814,21.12625 -5.471049,0 -9.723476,-1.73391 -12.756932,-5.20071 -3.033449,-3.4668 -4.549969,-8.55788 -4.549969,-15.27481 v -31.36401 z" /><path
     sodipodi:type="star"
     style="opacity:1;fill:#000000;stroke:none;stroke-width:2.7086;stroke-linecap:square;paint-order:fill markers stroke"
     id="path2"
     inkscape:flatsided="true"
     sodipodi:sides="3"
     sodipodi:cx="0"
     sodipodi:cy="88.754829"
     sodipodi:r1="62.556416"
     sodipodi:r2="31.278208"
     sodipodi:arg1="-2.0943951"
     sodipodi:arg2="-1.0471976"
     inkscape:rounded="0"
     inkscape:randomized="0"
     d="M -31.278208,34.579384 62.556416,88.75483 -31.278208,142.93027 Z"
     transform="matrix(0.98599798,0,0,1.7005949,50.127491,-96.098013)"
     inkscape:transform-center-x="-15.419943"
     inkscape:transform-center-y="2.0071303e-06" /><path
     style="font-weight:bold;font-size:252.226px;font-family:'Liberation Sans';-inkscape-font-specification:'Liberation Sans';letter-spacing:0px;stroke-width:3.5074;stroke-linecap:square;paint-order:fill markers stroke"
     d="M 8.3046885,-207.63296 H 122.79054 v 23.96972 H 26.830429 v 61.42747 H 8.3046885 Z"
     id="text2" /></svg>
