<?xml version="1.0" encoding="UTF-8" standalone="no"?>
<!-- Created with Inkscape (http://www.inkscape.org/) -->

<svg
   width="24"
   height="24"
   viewBox="0 0 6.3499999 6.35"
   version="1.1"
   id="svg10009"
   inkscape:version="1.2.2 (732a01da63, 2022-12-09)"
   sodipodi:docname="qscat.svg"
   xml:space="preserve"
   inkscape:export-filename="qscat.png"
   inkscape:export-xdpi="96"
   inkscape:export-ydpi="96"
   xmlns:inkscape="http://www.inkscape.org/namespaces/inkscape"
   xmlns:sodipodi="http://sodipodi.sourceforge.net/DTD/sodipodi-0.dtd"
   xmlns="http://www.w3.org/2000/svg"
   xmlns:svg="http://www.w3.org/2000/svg"><sodipodi:namedview
     id="namedview10011"
     pagecolor="#ffffff"
     bordercolor="#000000"
     borderopacity="0.25"
     inkscape:showpageshadow="2"
     inkscape:pageopacity="0.0"
     inkscape:pagecheckerboard="0"
     inkscape:deskcolor="#d1d1d1"
     inkscape:document-units="mm"
     showgrid="false"
     inkscape:zoom="11.313709"
     inkscape:cx="14.186329"
     inkscape:cy="9.2807763"
     inkscape:window-width="2560"
     inkscape:window-height="1369"
     inkscape:window-x="-8"
     inkscape:window-y="-8"
     inkscape:window-maximized="1"
     inkscape:current-layer="layer1"
     showguides="false" /><defs
     id="defs10006" /><g
     inkscape:label="Layer 1"
     inkscape:groupmode="layer"
     id="layer1"><g
       id="g3482"
       transform="matrix(0.22523369,0,0,0.22523369,-59.901538,-145.49214)"
       style="stroke-width:4.43983"
       inkscape:export-filename="qscat.png"
       inkscape:export-xdpi="96"
       inkscape:export-ydpi="96"><path
         d="m 270.08633,650.09502 c -0.64241,0.64206 -0.64241,1.68416 0,2.32763 l 21.23546,21.23405 c 0.64205,0.64346 1.6838,0.64346 2.32762,0 0.64206,-0.64206 0.64206,-1.68381 0,-2.32622 L 272.4136,650.09502 c -0.64205,-0.64347 -1.68522,-0.64347 -2.32727,0 z"
         style="fill:#bcd4e6;fill-opacity:1;fill-rule:nonzero;stroke:none;stroke-width:1.56627"
         id="path2163" /><path
         d="m 267.36747,655.18137 c -0.64382,0.64206 -0.64382,1.68522 0,2.32763 l 16.15052,16.15052 c 0.64205,0.64205 1.68381,0.64205 2.32727,0 0.64241,-0.64206 0.64241,-1.68522 0,-2.32763 l -16.15052,-16.15052 c -0.64346,-0.64205 -1.68521,-0.64205 -2.32727,0 z"
         style="fill:#6488c1;fill-opacity:1;fill-rule:nonzero;stroke:none;stroke-width:1.56627"
         id="path2165" /><path
         d="m 267.59748,661.57406 c -0.43533,0 -0.85443,0.17356 -1.16311,0.48224 -0.64205,0.64241 -0.64205,1.68417 0,2.32763 l 9.28652,9.28511 c 0.64241,0.64382 1.68417,0.64382 2.32622,0 0.64347,-0.64205 0.64347,-1.68381 0,-2.32727 L 268.762,662.0563 c -0.30868,-0.30868 -0.72778,-0.48224 -1.16452,-0.48224 z"
         style="fill:#5072a7;fill-opacity:1;fill-rule:nonzero;stroke:none;stroke-width:1.56627"
         id="path2167" /><path
         d="m 275.17374,647.37475 c -0.64206,0.64347 -0.64206,1.68522 0,2.32763 l 16.1618,16.16145 c 0.64347,0.64382 1.68522,0.64382 2.32763,0 0.64347,-0.64205 0.64347,-1.6838 0,-2.32727 l -16.16181,-16.16181 c -0.64205,-0.64205 -1.6838,-0.64205 -2.32762,0 z"
         style="fill:#cd5c5d;fill-opacity:1;fill-rule:nonzero;stroke:none;stroke-width:1.56627"
         id="path2169" /><path
         d="m 283.21213,645.96082 c -0.43709,0 -0.85584,0.17392 -1.16452,0.4826 -0.64205,0.64205 -0.64205,1.68381 0,2.32586 l 9.28652,9.28652 c 0.64206,0.64241 1.68381,0.64241 2.32763,0 0.64206,-0.64205 0.64206,-1.6838 0,-2.32727 l -9.28687,-9.28511 c -0.30868,-0.30868 -0.72602,-0.4826 -1.16276,-0.4826 z"
         style="fill:#b33c3c;fill-opacity:1;fill-rule:nonzero;stroke:none;stroke-width:1.56627"
         id="path2171" /></g></g></svg>
